<svg id="Capa_1" xmlns="http://www.w3.org/2000/svg" viewBox="0 0 215 116.2" width="215" height="116.2"><style>.st0{fill:#0056a3}.st1{fill:#f6a60b}.st2{fill:#3ba935}.st3{fill:#00784c}</style><path id="XMLID_210_" class="st0" d="M31 67.3c-2.3 3-6.1 5-10.5 5-7.1 0-12.8-5.2-12.8-11.7s5.7-11.7 12.8-11.7c4.4 0 8.2 2 10.5 5l6.5-3.9c-3.7-5-9.9-8.3-17-8.3C9.2 41.7 0 50.1 0 60.5s9.2 18.8 20.5 18.8c7.1 0 13.3-3.3 17-8.3L31 67.3z"/><path id="XMLID_207_" class="st0" d="M58 41.8c-11.3 0-20.5 8.4-20.5 18.8S46.7 79.4 58 79.4 78.5 71 78.5 60.6c0-10.3-9.2-18.8-20.5-18.8zm0 30.5c-7.1 0-12.8-5.2-12.8-11.7S50.9 48.9 58 48.9s12.8 5.2 12.8 11.7S65.1 72.3 58 72.3z"/><path id="XMLID_206_" class="st0" d="M99.8 41.8c-10 0-18.1 6.3-18.1 14v23h7.7v-23c0-3.8 4.7-7.1 10.4-7.1s10.4 3.3 10.4 7.1v23h7.7v-23c0-7.7-8.1-14-18.1-14z"/><path id="XMLID_205_" class="st0" d="M122.6 54.1v24.8h7.7v-16h22v-7.3h-21.9V55c0-2.9 2.3-5.3 5.2-5.3H156v-7.3h-21.9c-6.4-.1-11.5 5.2-11.5 11.7z"/><path id="XMLID_202_" class="st0" d="M204.9 67.3c-2.3 3-6.1 5-10.5 5-6.2 0-11.3-4-12.5-9.3h32.9c.1-.8.2-1.6.2-2.4 0-10.4-9.2-18.8-20.5-18.8S174 50.2 174 60.6s9.2 18.8 20.5 18.8c8.8 0 16.2-5 19.2-12.1h-8.8zm-10.5-18.4c5.1 0 9.4 2.7 11.5 6.6h-23c2.1-3.9 6.5-6.6 11.5-6.6z"/><g id="XMLID_196_"><path id="XMLID_197_" class="st0" d="M214.6 32.9c0 .6-.2 1.2-.5 1.8-.3.6-.8 1-1.3 1.3-.6.3-1.2.5-1.8.5s-1.2-.2-1.8-.5-1-.8-1.3-1.3c-.3-.6-.5-1.2-.5-1.8 0-.6.2-1.2.5-1.8.3-.6.8-1 1.3-1.3.6-.3 1.2-.5 1.8-.5s1.2.2 1.8.5 1 .8 1.3 1.3c.4.6.5 1.2.5 1.8zm-.7 0c0-.8-.3-1.5-.8-2.1-.6-.6-1.2-.9-2.1-.9-.8 0-1.5.3-2.1.9s-.8 1.2-.8 2.1.3 1.5.8 2c.6.6 1.3.9 2.1.9s1.5-.3 2.1-.9c.6-.5.8-1.2.8-2zm-4.5-1.9h1.7c.5 0 .8.1 1.1.3.2.2.3.5.3.8s-.1.5-.3.7-.4.3-.8.4c.1.1.3.1.3.2.1.1.2.2.3.4 0 0 .2.4.6 1.1h-1.1c-.4-.7-.6-1.2-.7-1.3-.1-.1-.3-.2-.4-.2h-.1v1.5h-1V31h.1zm1 1.6h.4c.3 0 .5 0 .6-.1s.2-.2.2-.3c0-.1-.1-.3-.2-.3-.1-.1-.3-.1-.6-.1h-.5l.1.8z"/></g><g id="XMLID_193_"><path id="XMLID_195_" class="st1" d="M171.4 40s-3 2.1-4.4 8.5l-.6-9.7-.7 7.2s-.2 4.4-1.7.5-5.2-11.4-5.2-11.4 3.7 11.2 4.1 20.7c.4 9.5-1 23-1 23h9.7s-2.6-12.4-3.1-21c-.7-8.5 2.2-16.4 2.9-17.8z"/><path id="XMLID_194_" class="st1" d="M174.6 25.2l-4.7-.4s-8.5-1.3-9.3 10.8l4.5.3s3.7.5 6.8-2.8c3.1-3.4 2.7-7.9 2.7-7.9z"/></g><g id="XMLID_183_"><path id="XMLID_192_" class="st2" d="M175.1 31.4l2.9.9s5.2 1.9 6.5-3.6l-3.4-1.1c.1 0-4.3-1.5-6 3.8z"/><path id="XMLID_191_" class="st2" d="M192.3 19.5s-4 .1-4 4.9h3.9s4.1.1 4.1-4.9h-4z"/><path id="XMLID_190_" class="st2" d="M179.6 20.7c5-3.3 1.9-6.4 1.9-6.4l-2.7-2.8c-5 2.9-2 6.4-2 6.4l2.8 2.8z"/><path id="XMLID_189_" class="st2" d="M167.5 1.7L164 0c-2.4 4.4 2 6.6 2.8 7 .7.3 3 1.4 3 1.4 2.4-4.3-2.3-6.7-2.3-6.7z"/><path id="XMLID_188_" class="st2" d="M163.4 16.2s-4.8.5-4.2 6.3l2.9-.4s5-.5 4.3-6.2l-3 .3z"/><path id="XMLID_187_" class="st2" d="M150.3 13.3l3.9-.1c-.2-5.8-4.6-5.7-4.6-5.7h-4.1c.2 5.9 4.8 5.8 4.8 5.8z"/><path id="XMLID_186_" class="st2" d="M139.5 19.3l-3.8.1c.3 5.7 5.2 5.5 5.2 5.5l3.9-.2c-.4-5.7-5.3-5.4-5.3-5.4z"/><path id="XMLID_185_" class="st2" d="M149.4 29.8l3.5.7c1.8-5.2-2.8-6.4-2.8-6.4l-3.9-.8c-1.6 5.6 3.2 6.5 3.2 6.5z"/><path id="XMLID_184_" class="st2" d="M149.9 32.2l-3.9 1.2c1.7 4.8 6.4 3.2 6.4 3.2l3.3-1.1c-1.8-4.8-5.8-3.3-5.8-3.3z"/></g><g id="XMLID_163_"><path id="XMLID_182_" class="st3" d="M174.3 34.1c-1.9.9-2.2 3.3-2.2 3.3s1.8.8 3 1.3 2.5.9 4.2-.1c1.6-.9 2-3 2-3-2.4-1.2-5.1-2.4-7-1.5z"/><path id="XMLID_181_" class="st3" d="M186.7 20.1l-3.9.4s-4.6.5-3.7 5.6c0 0 3.8 0 5.9-1.1 2.1-1.1 2.1-3.6 1.7-4.9z"/><path id="XMLID_180_" class="st3" d="M172 19h-4.3c-1.6 4.7 3.9 4.8 3.9 4.8h4.1c1.7-4.7-3.7-4.8-3.7-4.8z"/><path id="XMLID_179_" class="st3" d="M189.5 26.8s-4.4.1-4.4 5.4h4.3s4.5.1 4.5-5.4h-4.4z"/><path id="XMLID_178_" class="st3" d="M184.2 18.4l4.2-.7s4.8-.5 4-6.1l-4.3.7c-.1 0-4.6.7-3.9 6.1z"/><path id="XMLID_177_" class="st3" d="M185.7 10.9l3.1-2c-2.2-4.5-5.5-2.6-5.5-2.6L180 8.4c2.3 4.7 5.7 2.5 5.7 2.5z"/><path id="XMLID_176_" class="st3" d="M175.7 11.6l2.2-2.9s2.6-3.6-3.1-6.4l-2.2 3c0-.1-2.4 3.8 3.1 6.3z"/><path id="XMLID_175_" class="st3" d="M156.3 14.7l4.2-.3s4.8-.4 4.5-5.9l-4.1.2s-5.2.5-4.6 6z"/><path id="XMLID_174_" class="st3" d="M170 16.6l3.4.9c1.6-4.6-3.1-5.9-3.1-5.9l-3.4-.9c-1.3 4.8 3.1 5.9 3.1 5.9z"/><path id="XMLID_173_" class="st3" d="M158.2 7.5s4.8-2.2 2.2-6.8l-3.6 1.5s-4.7 2.1-2 6.8l3.4-1.5z"/><path id="XMLID_172_" class="st3" d="M153.6 15l-2.3 3.2s-2.8 4.1 3.1 6.7l1.8-2.5c.1 0 3.8-4.5-2.6-7.4z"/><path id="XMLID_171_" class="st3" d="M145.3 14l-3.9-.7c-1.3 4.9 3.5 6.2 3.5 6.2l4.6.9c1-5.4-4.2-6.4-4.2-6.4z"/><path id="XMLID_170_" class="st3" d="M141.9 27l-3.4.5c.4 5.2 5.1 4.6 5.1 4.6l3.4-.4c-.4-5.2-5.1-4.7-5.1-4.7z"/><path id="XMLID_165_" class="st3" d="M158.2 25.1s-4.8 2.2-2 6.8l2.9-1.4s4.9-1.9 2.1-6.7l-3 1.3z"/></g><g><path class="st2" d="M152.3 86.9h8.2c4.3 0 7.2 2 7.2 6.1 0 3.2-1.5 5.2-5.1 5.6v.1c3.7.3 6 1.9 6 5 0 3.9-1.8 6.5-8.2 6.5h-8V86.9h-.1zm7.5 10.5c3.2 0 4.7-1.2 4.7-4s-1.5-3.8-4.4-3.8h-4.6v7.8h4.3zm.1 10.4c4.3 0 5.4-1.2 5.4-3.9 0-2.9-1.6-3.8-5.5-3.8h-4.4v7.6l4.5.1zM172.3 85.7h3v24.6h-3V85.7zM178.8 101.3c0-5.5 3.4-9 8.3-9 5.1 0 8.4 3.5 8.4 8.9 0 6.4-3.8 9.4-8.4 9.4s-8.3-3-8.3-9.3zm13.6.5v-1.4c0-3.7-2-5.9-5.2-5.9s-5.2 2.2-5.2 5.9v1.4c0 4.8 2.2 6.7 5.2 6.7s5.2-1.9 5.2-6.7zM199.6 113.8v-2.3c1 .9 2.7 1.9 6.3 1.9 3.4 0 6-1.6 6-5.6v-2.6c-.8 2.9-3.1 4.4-6.5 4.4-4.7 0-7.4-3.5-7.4-8.7 0-5.1 3.3-8.3 7.5-8.3 3.5 0 5.5 1.4 6.4 4.2 0-1 .2-2 .4-2.7l.3-1.1h2.3v14.7c0 5.4-3.7 8.5-8.7 8.5-4-.2-5.8-1.4-6.6-2.4zm12.3-12.3v-.6c0-4.1-2.6-6.1-5.7-6.1-3 0-5 1.7-5 5.5v1.2c0 3.7 1.6 5.8 4.9 5.8 3-.1 5.8-2 5.8-5.8z"/></g></svg>