<?xml version="1.0" standalone="no"?>
<!DOCTYPE svg PUBLIC "-//W3C//DTD SVG 20010904//EN"
 "http://www.w3.org/TR/2001/REC-SVG-20010904/DTD/svg10.dtd">
<svg version="1.0" xmlns="http://www.w3.org/2000/svg"
 width="260.000000pt" height="260.000000pt" viewBox="0 0 260.000000 260.000000"
 preserveAspectRatio="xMidYMid meet">
<metadata>
Created by potrace 1.11, written by Peter Selinger 2001-2013
</metadata>
<g transform="translate(0.000000,260.000000) scale(0.100000,-0.100000)"
fill="#000000" stroke="none">
<path d="M1219 2569 c-26 -50 -9 -120 41 -167 28 -26 149 -84 160 -77 14 8 23
69 15 103 -9 42 -69 97 -142 132 -62 29 -63 29 -74 9z"/>
<path d="M1024 2526 c-106 -50 -141 -117 -105 -203 l13 -31 66 29 c123 55 162
118 131 208 -6 17 -16 31 -22 31 -7 -1 -44 -16 -83 -34z"/>
<path d="M1542 2464 c-47 -64 -57 -97 -43 -144 12 -41 73 -100 102 -100 23 0
89 94 96 135 7 44 -20 97 -66 129 -20 14 -41 26 -47 26 -5 -1 -24 -21 -42 -46z"/>
<path d="M1860 2387 c-14 -7 -44 -26 -67 -41 l-43 -28 18 -31 c9 -16 31 -38
47 -48 48 -30 91 -24 162 22 65 43 66 45 31 90 -32 40 -106 58 -148 36z"/>
<path d="M634 2335 c-3 -7 -3 -23 0 -36 17 -93 87 -148 181 -143 17 1 45 2 63
3 34 1 34 1 28 42 -7 53 -40 105 -79 125 -37 20 -187 26 -193 9z"/>
<path d="M1101 2298 c-71 -20 -116 -73 -120 -143 l-2 -44 53 3 c29 3 67 5 83
5 79 2 154 94 146 179 -1 15 -108 15 -160 0z"/>
<path d="M1326 2233 c-11 -12 -6 -84 8 -112 8 -15 27 -36 42 -46 27 -18 155
-58 162 -51 2 3 6 22 9 44 11 83 -47 135 -188 166 -14 3 -29 3 -33 -1z"/>
<path d="M1655 2169 c-35 -39 -37 -45 -33 -91 5 -44 12 -56 59 -104 29 -30 57
-54 62 -54 11 0 47 35 69 67 20 32 23 74 7 106 -16 30 -101 117 -115 117 -6 0
-28 -19 -49 -41z"/>
<path d="M2109 2206 c-2 -2 -25 -7 -52 -10 -109 -15 -160 -59 -171 -149 -7
-54 -1 -57 93 -40 88 15 127 34 155 78 17 25 27 89 18 113 -4 11 -33 17 -43 8z"/>
<path d="M492 2097 c5 -59 26 -95 72 -123 32 -19 194 -56 200 -45 2 3 3 25 1
48 -5 86 -67 142 -179 162 -100 18 -99 19 -94 -42z"/>
<path d="M848 2038 c-68 -100 -58 -174 32 -235 18 -13 36 -23 39 -23 10 1 72
89 86 123 26 64 -2 135 -69 176 -18 12 -36 21 -39 21 -4 0 -26 -28 -49 -62z"/>
<path d="M1195 2059 c-38 -9 -87 -46 -106 -81 -5 -9 -12 -40 -15 -69 l-6 -52
58 8 c71 9 102 20 132 48 35 32 52 71 52 117 0 40 0 40 -37 39 -21 -1 -56 -5
-78 -10z"/>
<path d="M1350 1968 c-1 -2 -3 -19 -6 -39 -4 -29 0 -42 21 -67 32 -39 77 -52
178 -52 l77 0 1 28 c3 65 -11 91 -61 117 -21 11 -209 22 -210 13z"/>
<path d="M313 1926 c6 -45 34 -93 70 -120 24 -17 45 -21 124 -23 l96 -3 -6 42
c-6 45 -28 81 -71 112 -22 17 -45 21 -123 24 l-95 2 5 -34z"/>
<path d="M2122 1948 c-41 -11 -79 -50 -91 -94 -18 -64 -19 -62 80 -59 79 3 94
6 116 27 29 26 53 76 53 110 0 22 -4 23 -65 23 -36 0 -78 -3 -93 -7z"/>
<path d="M1939 1936 c-2 -2 -30 -7 -62 -10 -75 -9 -96 -17 -129 -52 -33 -36
-48 -121 -22 -131 21 -8 150 14 185 32 16 9 35 25 43 38 17 26 27 86 18 107
-7 14 -25 23 -33 16z"/>
<path d="M646 1798 c-11 -59 8 -117 48 -149 22 -19 86 -38 149 -46 31 -4 37
-2 38 14 1 10 2 32 3 48 4 42 -18 90 -51 113 -21 15 -147 52 -176 52 -3 0 -7
-15 -11 -32z"/>
<path d="M1080 1790 c-85 -38 -130 -86 -130 -139 0 -49 15 -91 32 -91 26 1
142 67 161 92 25 33 32 95 15 135 l-14 32 -64 -29z"/>
<path d="M1330 1761 c-49 -16 -87 -40 -119 -76 -49 -56 -88 -160 -87 -230 1
-45 -9 -42 126 -45 87 -2 104 1 156 28 74 39 144 132 158 212 13 72 13 99 1
104 -25 9 -211 15 -235 7z"/>
<path d="M1999 1700 c-41 -22 -63 -50 -77 -103 -7 -26 -7 -39 1 -45 17 -13
157 -9 192 6 38 16 75 70 82 120 l5 39 -83 1 c-65 1 -92 -3 -120 -18z"/>
<path d="M430 1700 c-26 -5 -29 -16 -15 -63 15 -55 98 -100 167 -91 100 13 98
12 91 47 -9 46 -41 87 -80 104 -33 13 -110 15 -163 3z"/>
<path d="M1690 1688 c-35 -13 -59 -37 -81 -81 -15 -28 -17 -38 -7 -42 81 -28
109 -35 146 -35 52 0 93 20 120 58 36 50 32 64 -23 85 -60 22 -121 28 -155 15z"/>
<path d="M718 1527 c-74 -23 -80 -32 -48 -77 24 -34 77 -60 120 -60 40 0 170
38 170 49 0 21 -49 78 -80 93 -44 23 -78 22 -162 -5z"/>
<path d="M1559 1476 c-31 -18 -56 -53 -61 -85 -3 -21 6 -27 67 -52 82 -33 92
-34 142 -14 39 16 65 44 77 83 7 20 1 25 -50 49 -70 32 -139 39 -175 19z"/>
<path d="M1070 1385 c37 -98 100 -396 115 -545 12 -111 5 -540 -9 -618 -2 -9
-7 -61 -11 -115 l-7 -97 156 0 c118 0 156 3 156 13 0 6 -11 70 -24 142 -34
184 -40 219 -66 450 -20 178 5 407 64 586 l25 74 -35 -39 c-38 -43 -94 -154
-94 -186 0 -21 -17 -29 -17 -7 0 6 -3 63 -7 126 -6 116 -15 157 -17 85 -1 -21
-3 -48 -4 -59 -1 -11 -5 -50 -9 -88 -11 -112 -22 -122 -55 -52 -12 25 -21 47
-21 49 0 3 -23 53 -51 113 -28 59 -60 127 -70 151 -19 45 -35 59 -19 17z"/>
</g>
</svg>
