<?xml version="1.0" encoding="utf-8"?>
<!-- Generator: Adobe Illustrator 22.1.0, SVG Export Plug-In . SVG Version: 6.00 Build 0)  -->
<svg version="1.1" id="Capa_1" xmlns="http://www.w3.org/2000/svg" xmlns:xlink="http://www.w3.org/1999/xlink" x="0px" y="0px"
	 viewBox="0 0 215 116.2" style="enable-background:new 0 0 215 116.2;" xml:space="preserve">
<style type="text/css">
	.st0{fill:#0056A3;}
	.st1{fill:#F6A60B;}
	.st2{fill:#3BA935;}
	.st3{fill:#00784C;}
</style>
<g>
	<path id="XMLID_210_" class="st0" d="M31,67.3c-2.3,3-6.1,5-10.5,5c-7.1,0-12.8-5.2-12.8-11.7s5.7-11.7,12.8-11.7
		c4.4,0,8.2,2,10.5,5l6.5-3.9c-3.7-5-9.9-8.3-17-8.3C9.2,41.7,0,50.1,0,60.5s9.2,18.8,20.5,18.8c7.1,0,13.3-3.3,17-8.3L31,67.3z"/>
	<path id="XMLID_207_" class="st0" d="M58,41.8c-11.3,0-20.5,8.4-20.5,18.8S46.7,79.4,58,79.4S78.5,71,78.5,60.6
		C78.5,50.3,69.3,41.8,58,41.8z M58,72.3c-7.1,0-12.8-5.2-12.8-11.7S50.9,48.9,58,48.9s12.8,5.2,12.8,11.7S65.1,72.3,58,72.3z"/>
	<path id="XMLID_206_" class="st0" d="M99.8,41.8c-10,0-18.1,6.3-18.1,14v23h7.7v-23l0,0c0-3.8,4.7-7.1,10.4-7.1s10.4,3.3,10.4,7.1
		l0,0v23h7.7v-23l0,0C117.9,48.1,109.8,41.8,99.8,41.8z"/>
	<path id="XMLID_205_" class="st0" d="M122.6,54.1L122.6,54.1v24.8h7.7v-16h22v-7.3h-21.9V55l0,0c0-2.9,2.3-5.3,5.2-5.3H156v-7.3
		h-21.9C127.7,42.3,122.6,47.6,122.6,54.1z"/>
	<path id="XMLID_202_" class="st0" d="M204.9,67.3c-2.3,3-6.1,5-10.5,5c-6.2,0-11.3-4-12.5-9.3H207h7.8l0,0l0,0
		c0.1-0.8,0.2-1.6,0.2-2.4c0-10.4-9.2-18.8-20.5-18.8S174,50.2,174,60.6s9.2,18.8,20.5,18.8c8.8,0,16.2-5,19.2-12.1H204.9z
		 M194.4,48.9c5.1,0,9.4,2.7,11.5,6.6h-23C185,51.6,189.4,48.9,194.4,48.9z"/>
	<g id="XMLID_196_">
		<path id="XMLID_197_" class="st0" d="M214.6,32.9c0,0.6-0.2,1.2-0.5,1.8c-0.3,0.6-0.8,1-1.3,1.3c-0.6,0.3-1.2,0.5-1.8,0.5
			s-1.2-0.2-1.8-0.5s-1-0.8-1.3-1.3c-0.3-0.6-0.5-1.2-0.5-1.8c0-0.6,0.2-1.2,0.5-1.8c0.3-0.6,0.8-1,1.3-1.3c0.6-0.3,1.2-0.5,1.8-0.5
			s1.2,0.2,1.8,0.5s1,0.8,1.3,1.3C214.5,31.7,214.6,32.3,214.6,32.9z M213.9,32.9c0-0.8-0.3-1.5-0.8-2.1c-0.6-0.6-1.2-0.9-2.1-0.9
			c-0.8,0-1.5,0.3-2.1,0.9s-0.8,1.2-0.8,2.1s0.3,1.5,0.8,2c0.6,0.6,1.3,0.9,2.1,0.9s1.5-0.3,2.1-0.9
			C213.7,34.4,213.9,33.7,213.9,32.9z M209.4,31h1.7c0.5,0,0.8,0.1,1.1,0.3c0.2,0.2,0.3,0.5,0.3,0.8s-0.1,0.5-0.3,0.7
			s-0.4,0.3-0.8,0.4c0.1,0.1,0.3,0.1,0.3,0.2c0.1,0.1,0.2,0.2,0.3,0.4c0,0,0.2,0.4,0.6,1.1h-1.1c-0.4-0.7-0.6-1.2-0.7-1.3
			c-0.1-0.1-0.3-0.2-0.4-0.2h-0.1v1.5h-1V31H209.4z M210.4,32.6h0.4c0.3,0,0.5,0,0.6-0.1s0.2-0.2,0.2-0.3c0-0.1-0.1-0.3-0.2-0.3
			c-0.1-0.1-0.3-0.1-0.6-0.1h-0.5L210.4,32.6L210.4,32.6z"/>
	</g>
	<g>
		<g id="XMLID_193_">
			<path id="XMLID_195_" class="st1" d="M171.4,40c0,0-3,2.1-4.4,8.5l-0.6-9.7l-0.7,7.2c0,0-0.2,4.4-1.7,0.5s-5.2-11.4-5.2-11.4
				s3.7,11.2,4.1,20.7c0.4,9.5-1,23-1,23h9.7c0,0-2.6-12.4-3.1-21C167.8,49.3,170.7,41.4,171.4,40z"/>
			<path id="XMLID_194_" class="st1" d="M174.6,25.2l-4.7-0.4c0,0-8.5-1.3-9.3,10.8l4.5,0.3c0,0,3.7,0.5,6.8-2.8
				C175,29.7,174.6,25.2,174.6,25.2z"/>
		</g>
		<g id="XMLID_183_">
			<path id="XMLID_192_" class="st2" d="M175.1,31.4l2.9,0.9c0,0,5.2,1.9,6.5-3.6l-3.4-1.1C181.2,27.6,176.8,26.1,175.1,31.4z"/>
			<path id="XMLID_191_" class="st2" d="M192.3,19.5c0,0-4,0.1-4,4.9h3.9c0,0,4.1,0.1,4.1-4.9H192.3z"/>
			<path id="XMLID_190_" class="st2" d="M179.6,20.7c5-3.3,1.9-6.4,1.9-6.4l-2.7-2.8c-5,2.9-2,6.4-2,6.4L179.6,20.7z"/>
			<path id="XMLID_189_" class="st2" d="M167.5,1.7L164,0c-2.4,4.4,2,6.6,2.8,7c0.7,0.3,3,1.4,3,1.4C172.2,4.1,167.5,1.7,167.5,1.7z
				"/>
			<path id="XMLID_188_" class="st2" d="M163.4,16.2c0,0-4.8,0.5-4.2,6.3l2.9-0.4c0,0,5-0.5,4.3-6.2L163.4,16.2z"/>
			<path id="XMLID_187_" class="st2" d="M150.3,13.3l3.9-0.1c-0.2-5.8-4.6-5.7-4.6-5.7h-4.1C145.7,13.4,150.3,13.3,150.3,13.3z"/>
			<path id="XMLID_186_" class="st2" d="M139.5,19.3l-3.8,0.1c0.3,5.7,5.2,5.5,5.2,5.5l3.9-0.2C144.4,19,139.5,19.3,139.5,19.3z"/>
			<path id="XMLID_185_" class="st2" d="M149.4,29.8l3.5,0.7c1.8-5.2-2.8-6.4-2.8-6.4l-3.9-0.8C144.6,28.9,149.4,29.8,149.4,29.8z"
				/>
			<path id="XMLID_184_" class="st2" d="M149.9,32.2l-3.9,1.2c1.7,4.8,6.4,3.2,6.4,3.2l3.3-1.1C153.9,30.7,149.9,32.2,149.9,32.2z"
				/>
		</g>
		<g id="XMLID_163_">
			<path id="XMLID_182_" class="st3" d="M174.3,34.1c-1.9,0.9-2.2,3.3-2.2,3.3s1.8,0.8,3,1.3s2.5,0.9,4.2-0.1c1.6-0.9,2-3,2-3
				C178.9,34.4,176.2,33.2,174.3,34.1z"/>
			<path id="XMLID_181_" class="st3" d="M186.7,20.1l-3.9,0.4c0,0-4.6,0.5-3.7,5.6c0,0,3.8,0,5.9-1.1
				C187.1,23.9,187.1,21.4,186.7,20.1z"/>
			<path id="XMLID_180_" class="st3" d="M172,19h-4.3c-1.6,4.7,3.9,4.8,3.9,4.8h4.1C177.4,19.1,172,19,172,19z"/>
			<path id="XMLID_179_" class="st3" d="M189.5,26.8c0,0-4.4,0.1-4.4,5.4h4.3c0,0,4.5,0.1,4.5-5.4H189.5z"/>
			<path id="XMLID_178_" class="st3" d="M184.2,18.4l4.2-0.7c0,0,4.8-0.5,4-6.1l-4.3,0.7C188,12.3,183.5,13,184.2,18.4z"/>
			<path id="XMLID_177_" class="st3" d="M185.7,10.9l3.1-2c-2.2-4.5-5.5-2.6-5.5-2.6L180,8.4C182.3,13.1,185.7,10.9,185.7,10.9z"/>
			<path id="XMLID_176_" class="st3" d="M175.7,11.6l2.2-2.9c0,0,2.6-3.6-3.1-6.4l-2.2,3C172.6,5.2,170.2,9.1,175.7,11.6z"/>
			<path id="XMLID_175_" class="st3" d="M156.3,14.7l4.2-0.3c0,0,4.8-0.4,4.5-5.9l-4.1,0.2C160.9,8.7,155.7,9.2,156.3,14.7z"/>
			<path id="XMLID_174_" class="st3" d="M170,16.6l3.4,0.9c1.6-4.6-3.1-5.9-3.1-5.9l-3.4-0.9C165.6,15.5,170,16.6,170,16.6z"/>
			<path id="XMLID_173_" class="st3" d="M158.2,7.5c0,0,4.8-2.2,2.2-6.8l-3.6,1.5c0,0-4.7,2.1-2,6.8L158.2,7.5z"/>
			<path id="XMLID_172_" class="st3" d="M153.6,15l-2.3,3.2c0,0-2.8,4.1,3.1,6.7l1.8-2.5C156.3,22.4,160,17.9,153.6,15z"/>
			<path id="XMLID_171_" class="st3" d="M145.3,14l-3.9-0.7c-1.3,4.9,3.5,6.2,3.5,6.2l4.6,0.9C150.5,15,145.3,14,145.3,14z"/>
			<path id="XMLID_170_" class="st3" d="M141.9,27l-3.4,0.5c0.4,5.2,5.1,4.6,5.1,4.6l3.4-0.4C146.6,26.5,141.9,27,141.9,27z"/>
			<path id="XMLID_165_" class="st3" d="M158.2,25.1c0,0-4.8,2.2-2,6.8l2.9-1.4c0,0,4.9-1.9,2.1-6.7L158.2,25.1z"/>
		</g>
	</g>
	<g>
		<path class="st2" d="M152.3,86.9h8.2c4.3,0,7.2,2,7.2,6.1c0,3.2-1.5,5.2-5.1,5.6v0.1c3.7,0.3,6,1.9,6,5c0,3.9-1.8,6.5-8.2,6.5h-8
			V86.9H152.3z M159.8,97.4c3.2,0,4.7-1.2,4.7-4s-1.5-3.8-4.4-3.8h-4.6v7.8H159.8z M159.9,107.8c4.3,0,5.4-1.2,5.4-3.9
			c0-2.9-1.6-3.8-5.5-3.8h-4.4v7.6L159.9,107.8L159.9,107.8z"/>
		<path class="st2" d="M172.3,85.7h3v24.6h-3V85.7z"/>
		<path class="st2" d="M178.8,101.3L178.8,101.3c0-5.5,3.4-9,8.3-9c5.1,0,8.4,3.5,8.4,8.9l0,0c0,6.4-3.8,9.4-8.4,9.4
			S178.8,107.6,178.8,101.3z M192.4,101.8v-1.4c0-3.7-2-5.9-5.2-5.9s-5.2,2.2-5.2,5.9v1.4c0,4.8,2.2,6.7,5.2,6.7
			S192.4,106.6,192.4,101.8z"/>
		<path class="st2" d="M199.6,113.8v-2.3c1,0.9,2.7,1.9,6.3,1.9c3.4,0,6-1.6,6-5.6v-2.6c-0.8,2.9-3.1,4.4-6.5,4.4
			c-4.7,0-7.4-3.5-7.4-8.7l0,0c0-5.1,3.3-8.3,7.5-8.3c3.5,0,5.5,1.4,6.4,4.2c0-1,0.2-2,0.4-2.7l0.3-1.1h2.3v14.7
			c0,5.4-3.7,8.5-8.7,8.5C202.2,116,200.4,114.8,199.6,113.8z M211.9,101.5v-0.6c0-4.1-2.6-6.1-5.7-6.1c-3,0-5,1.7-5,5.5v1.2
			c0,3.7,1.6,5.8,4.9,5.8C209.1,107.2,211.9,105.3,211.9,101.5z"/>
	</g>
</g>
</svg>
