<?xml version="1.0" encoding="utf-8"?>
<!-- Generator: Adobe Illustrator 21.0.0, SVG Export Plug-In . SVG Version: 6.00 Build 0)  -->
<svg version="1.1" id="Capa_1" xmlns="http://www.w3.org/2000/svg" xmlns:xlink="http://www.w3.org/1999/xlink" x="0px" y="0px"
	 viewBox="0 0 1366 768" style="enable-background:new 0 0 1366 768;" xml:space="preserve">
<style type="text/css">
	.st0{fill:#0056A3;}
	.st1{fill:#F6A60B;}
	.st2{fill:#3BA935;}
	.st3{fill:#00784C;}
</style>
<g>
	<path id="XMLID_210_" class="st0" d="M606.7,392.7c-2.3,3-6.1,5-10.5,5c-7.1,0-12.8-5.2-12.8-11.7c0-6.5,5.7-11.7,12.8-11.7
		c4.4,0,8.2,2,10.5,5l6.5-3.9c-3.7-5-9.9-8.3-17-8.3c-11.3,0-20.5,8.4-20.5,18.8c0,10.4,9.2,18.8,20.5,18.8c7.1,0,13.3-3.3,17-8.3
		L606.7,392.7z"/>
	<path id="XMLID_207_" class="st0" d="M633.7,367.2c-11.3,0-20.5,8.4-20.5,18.8c0,10.4,9.2,18.8,20.5,18.8
		c11.3,0,20.5-8.4,20.5-18.8C654.2,375.7,645,367.2,633.7,367.2z M633.7,397.7c-7.1,0-12.8-5.2-12.8-11.7c0-6.5,5.7-11.7,12.8-11.7
		c7.1,0,12.8,5.2,12.8,11.7C646.5,392.5,640.8,397.7,633.7,397.7z"/>
	<path id="XMLID_206_" class="st0" d="M675.5,367.2c-10,0-18.1,6.3-18.1,14v23h7.7v-23h0c0-3.8,4.7-7.1,10.4-7.1
		c5.7,0,10.4,3.3,10.4,7.1h0v23h7.7v-23h0C693.6,373.5,685.5,367.2,675.5,367.2z"/>
	<path id="XMLID_205_" class="st0" d="M698.3,379.5L698.3,379.5l0,24.8h7.7v-16H728V381h-21.9v-0.6l0,0c0-2.9,2.3-5.3,5.2-5.3h20.4
		v-7.3h-21.9C703.4,367.7,698.3,373,698.3,379.5z"/>
	<path id="XMLID_202_" class="st0" d="M780.6,392.7c-2.3,3-6.1,5-10.5,5c-6.2,0-11.3-4-12.5-9.3h25.1h7.8h0l0,0
		c0.1-0.8,0.2-1.6,0.2-2.4c0-10.4-9.2-18.8-20.5-18.8c-11.3,0-20.5,8.4-20.5,18.8c0,10.4,9.2,18.8,20.5,18.8c8.8,0,16.2-5,19.2-12.1
		H780.6z M770.1,374.3c5.1,0,9.4,2.7,11.5,6.6h-23C760.7,377,765.1,374.3,770.1,374.3z"/>
	<g id="XMLID_196_">
		<path id="XMLID_197_" class="st0" d="M790.3,358.3c0,0.6-0.2,1.2-0.5,1.8c-0.3,0.6-0.8,1-1.3,1.3c-0.6,0.3-1.2,0.5-1.8,0.5
			c-0.6,0-1.2-0.2-1.8-0.5c-0.6-0.3-1-0.8-1.3-1.3c-0.3-0.6-0.5-1.2-0.5-1.8c0-0.6,0.2-1.2,0.5-1.8c0.3-0.6,0.8-1,1.3-1.3
			c0.6-0.3,1.2-0.5,1.8-0.5c0.6,0,1.2,0.2,1.8,0.5c0.6,0.3,1,0.8,1.3,1.3C790.2,357.1,790.3,357.7,790.3,358.3z M789.6,358.3
			c0-0.8-0.3-1.5-0.8-2.1c-0.6-0.6-1.2-0.9-2.1-0.9c-0.8,0-1.5,0.3-2.1,0.9c-0.6,0.6-0.8,1.2-0.8,2.1s0.3,1.5,0.8,2
			c0.6,0.6,1.3,0.9,2.1,0.9c0.8,0,1.5-0.3,2.1-0.9C789.4,359.8,789.6,359.1,789.6,358.3z M785.1,356.4h1.7c0.5,0,0.8,0.1,1.1,0.3
			c0.2,0.2,0.3,0.5,0.3,0.8c0,0.3-0.1,0.5-0.3,0.7c-0.2,0.2-0.4,0.3-0.8,0.4c0.1,0.1,0.3,0.1,0.3,0.2c0.1,0.1,0.2,0.2,0.3,0.4
			c0,0,0.2,0.4,0.6,1.1h-1.1c-0.4-0.7-0.6-1.2-0.7-1.3c-0.1-0.1-0.3-0.2-0.4-0.2c0,0-0.1,0-0.1,0v1.5h-1V356.4z M786.1,358h0.4
			c0.3,0,0.5,0,0.6-0.1c0.1-0.1,0.2-0.2,0.2-0.3c0-0.1-0.1-0.3-0.2-0.3c-0.1-0.1-0.3-0.1-0.6-0.1h-0.5V358z"/>
	</g>
	<g>
		<g id="XMLID_193_">
			<path id="XMLID_195_" class="st1" d="M747.1,365.4c0,0-3,2.1-4.4,8.5l-0.6-9.7l-0.7,7.2c0,0-0.2,4.4-1.7,0.5
				c-1.5-3.9-5.2-11.4-5.2-11.4s3.7,11.2,4.1,20.7c0.4,9.5-1,23-1,23h9.7c0,0-2.6-12.4-3.1-21C743.5,374.7,746.4,366.8,747.1,365.4z
				"/>
			<path id="XMLID_194_" class="st1" d="M750.3,350.6l-4.7-0.4c0,0-8.5-1.3-9.3,10.8l4.5,0.3c0,0,3.7,0.5,6.8-2.8
				C750.7,355.1,750.3,350.6,750.3,350.6z"/>
		</g>
		<g id="XMLID_183_">
			<path id="XMLID_192_" class="st2" d="M750.8,356.8l2.9,0.9c0,0,5.2,1.9,6.5-3.6l-3.4-1.1C756.9,353,752.5,351.5,750.8,356.8z"/>
			<path id="XMLID_191_" class="st2" d="M768,344.9c0,0-4,0.1-4,4.9h3.9c0,0,4.1,0.1,4.1-4.9H768z"/>
			<path id="XMLID_190_" class="st2" d="M755.3,346.1c5-3.3,1.9-6.4,1.9-6.4l-2.7-2.8c-5,2.9-2,6.4-2,6.4L755.3,346.1z"/>
			<path id="XMLID_189_" class="st2" d="M743.2,327.1l-3.5-1.7c-2.4,4.4,2,6.6,2.8,7c0.7,0.3,3,1.4,3,1.4
				C747.9,329.5,743.2,327.1,743.2,327.1z"/>
			<path id="XMLID_188_" class="st2" d="M739.1,341.6c0,0-4.8,0.5-4.2,6.3l2.9-0.4c0,0,5-0.5,4.3-6.2L739.1,341.6z"/>
			<path id="XMLID_187_" class="st2" d="M726,338.7l3.9-0.1c-0.2-5.8-4.6-5.7-4.6-5.7h-4.1C721.4,338.8,726,338.7,726,338.7z"/>
			<path id="XMLID_186_" class="st2" d="M715.2,344.7l-3.8,0.1c0.3,5.7,5.2,5.5,5.2,5.5l3.9-0.2
				C720.1,344.4,715.2,344.7,715.2,344.7z"/>
			<path id="XMLID_185_" class="st2" d="M725.1,355.2l3.5,0.7c1.8-5.2-2.8-6.4-2.8-6.4l-3.9-0.8
				C720.3,354.3,725.1,355.2,725.1,355.2z"/>
			<path id="XMLID_184_" class="st2" d="M725.6,357.6l-3.9,1.2c1.7,4.8,6.4,3.2,6.4,3.2l3.3-1.1
				C729.6,356.1,725.6,357.6,725.6,357.6z"/>
		</g>
		<g id="XMLID_163_">
			<path id="XMLID_182_" class="st3" d="M750,359.5c-1.9,0.9-2.2,3.3-2.2,3.3s1.8,0.8,3,1.3c1.2,0.5,2.5,0.9,4.2-0.1
				c1.6-0.9,2-3,2-3C754.6,359.8,751.9,358.6,750,359.5z"/>
			<path id="XMLID_181_" class="st3" d="M762.4,345.5l-3.9,0.4c0,0-4.6,0.5-3.7,5.6c0,0,3.8,0,5.9-1.1
				C762.8,349.3,762.8,346.8,762.4,345.5z"/>
			<path id="XMLID_180_" class="st3" d="M747.7,344.4h-4.3c-1.6,4.7,3.9,4.8,3.9,4.8h4.1C753.1,344.5,747.7,344.4,747.7,344.4z"/>
			<path id="XMLID_179_" class="st3" d="M765.2,352.2c0,0-4.4,0.1-4.4,5.4h4.3c0,0,4.5,0.1,4.5-5.4H765.2z"/>
			<path id="XMLID_178_" class="st3" d="M759.9,343.8l4.2-0.7c0,0,4.8-0.5,4-6.1l-4.3,0.7C763.7,337.7,759.2,338.4,759.9,343.8z"/>
			<path id="XMLID_177_" class="st3" d="M761.4,336.3l3.1-2c-2.2-4.5-5.5-2.6-5.5-2.6l-3.3,2.1C758,338.5,761.4,336.3,761.4,336.3z"
				/>
			<path id="XMLID_176_" class="st3" d="M751.4,337l2.2-2.9c0,0,2.6-3.6-3.1-6.4l-2.2,3C748.3,330.6,745.9,334.5,751.4,337z"/>
			<path id="XMLID_175_" class="st3" d="M732,340.1l4.2-0.3c0,0,4.8-0.4,4.5-5.9l-4.1,0.2C736.6,334.1,731.4,334.6,732,340.1z"/>
			<path id="XMLID_174_" class="st3" d="M745.7,342l3.4,0.9c1.6-4.6-3.1-5.9-3.1-5.9l-3.4-0.9C741.3,340.9,745.7,342,745.7,342z"/>
			<path id="XMLID_173_" class="st3" d="M733.9,332.9c0,0,4.8-2.2,2.2-6.8l-3.6,1.5c0,0-4.7,2.1-2,6.8L733.9,332.9z"/>
			<path id="XMLID_172_" class="st3" d="M729.3,340.4l-2.3,3.2c0,0-2.8,4.1,3.1,6.7l1.8-2.5C732,347.8,735.7,343.3,729.3,340.4z"/>
			<path id="XMLID_171_" class="st3" d="M721,339.4l-3.9-0.7c-1.3,4.9,3.5,6.2,3.5,6.2l4.6,0.9C726.2,340.4,721,339.4,721,339.4z"/>
			<path id="XMLID_170_" class="st3" d="M717.6,352.4l-3.4,0.5c0.4,5.2,5.1,4.6,5.1,4.6l3.4-0.4
				C722.3,351.9,717.6,352.4,717.6,352.4z"/>
			<path id="XMLID_165_" class="st3" d="M733.9,350.5c0,0-4.8,2.2-2,6.8l2.9-1.4c0,0,4.9-1.9,2.1-6.7L733.9,350.5z"/>
		</g>
	</g>
	<g>
		<path class="st2" d="M728,412.3h8.2c4.3,0,7.2,2,7.2,6.1c0,3.2-1.5,5.2-5.1,5.6v0.1c3.7,0.3,6,1.9,6,5c0,3.9-1.8,6.5-8.2,6.5h-8
			V412.3z M735.5,422.8c3.2,0,4.7-1.2,4.7-4c0-2.8-1.5-3.8-4.4-3.8h-4.6v7.8H735.5z M735.6,433.2c4.3,0,5.4-1.2,5.4-3.9
			c0-2.9-1.6-3.8-5.5-3.8h-4.4v7.6H735.6z"/>
		<path class="st2" d="M748,411.1h3v24.6h-3V411.1z"/>
		<path class="st2" d="M754.5,426.7L754.5,426.7c0-5.5,3.4-9,8.3-9c5.1,0,8.4,3.5,8.4,8.9v0c0,6.4-3.8,9.4-8.4,9.4
			S754.5,433,754.5,426.7z M768.1,427.2v-1.4c0-3.7-2-5.9-5.2-5.9c-3.2,0-5.2,2.2-5.2,5.9v1.4c0,4.8,2.2,6.7,5.2,6.7
			S768.1,432,768.1,427.2z"/>
		<path class="st2" d="M775.3,439.2v-2.3c1,0.9,2.7,1.9,6.3,1.9c3.4,0,6-1.6,6-5.6v-2.6c-0.8,2.9-3.1,4.4-6.5,4.4
			c-4.7,0-7.4-3.5-7.4-8.7v0c0-5.1,3.3-8.3,7.5-8.3c3.5,0,5.5,1.4,6.4,4.2c0-1,0.2-2,0.4-2.7l0.3-1.1h2.3v14.7
			c0,5.4-3.7,8.5-8.7,8.5C777.9,441.4,776.1,440.2,775.3,439.2z M787.6,426.9v-0.6c0-4.1-2.6-6.1-5.7-6.1c-3,0-5,1.7-5,5.5v1.2
			c0,3.7,1.6,5.8,4.9,5.8C784.8,432.6,787.6,430.7,787.6,426.9z"/>
	</g>
</g>
</svg>
