<svg xmlns="http://www.w3.org/2000/svg" id="Capa_1" viewBox="0 0 97.8 97.8">
    <style>
        .st0{fill:#004b96}
    </style>
    <path d="M48.9 0C21.9 0 0 21.9 0 48.9s21.9 48.9 48.9 48.9 48.9-21.9 48.9-48.9S75.9 0 48.9 0zM37.5 68.7h-9.7V37.4h9.7v31.3zm-4.8-35.6c-3.1 0-5.7-2.5-5.7-5.7 0-3.1 2.5-5.6 5.7-5.6 3.1 0 5.6 2.5 5.6 5.6 0 3.2-2.5 5.7-5.6 5.7zM74 68.7h-9.7V53.5c0-3.6-.1-8.3-5.1-8.3-5.1 0-5.8 4-5.8 8.1v15.5h-9.7V37.4H53v4.3h.1c1.3-2.5 4.5-5.1 9.2-5.1 9.9 0 11.7 6.5 11.7 14.9v17.2z" class="st0"/>
</svg>
