<svg xmlns="http://www.w3.org/2000/svg" id="Capa_1" viewBox="0 0 97.8 97.8">
    <style>
        .st0{fill:#004b96}
    </style>
    <path d="M48.9 0C21.9 0 0 21.9 0 48.9s21.9 48.9 48.9 48.9 48.9-21.9 48.9-48.9S75.9 0 48.9 0zm20.6 38.6v1.2c0 14.8-11.3 30.1-30.1 30.1-5.8 0-11.4-1.6-16.2-4.8-.1-.1-.1-.2-.1-.3 0-.1.2-.2.3-.2.8.1 1.6.1 2.5.1 4.5 0 8.7-1.4 12.3-4-4.3-.4-8-3.3-9.3-7.4 0-.1 0-.2.1-.2.1-.1.2-.1.2-.1 1.2.2 2.4.2 3.6.1-4.4-1.4-7.5-5.5-7.5-10.3v-.1c0-.1.1-.2.1-.2h.3c1.2.6 2.4 1.1 3.7 1.2-2.5-2-4-5.1-4-8.4 0-1.9.5-3.8 1.5-5.4 0-.1.1-.1.2-.1s.2 0 .2.1c5.2 6.4 12.9 10.3 21.1 10.8-.4-.7-.4-1.4-.4-2.1 0-5.9 4.8-10.7 10.7-10.7 2.9 0 5.7 1.2 7.7 3.3 2.3-.5 4.4-1.3 6.4-2.5.1-.1.2 0 .3 0 .1.1.1.2.1.3-.7 2.1-2 4-3.8 5.3 1.7-.3 3.3-.8 4.8-1.5.1 0 .2 0 .3.1.1.1.1.2 0 .3-1.3 2.1-3 3.9-5 5.4z" class="st0"/>
</svg>
